<?xml version="1.0" encoding="UTF-8"?>
<svg id="Warstwa_1" data-name="Warstwa 1" xmlns="http://www.w3.org/2000/svg" viewBox="0 0 472.06 36.29">
  <defs>
    <style>
      .cls-1 {
        fill: #1d1d1b;
      }
    </style>
  </defs>
  <g>
    <path class="cls-1" d="M0,36.29V0h14.26c2.52,0,4.64.4,6.35,1.19,1.71.8,3.01,1.89,3.89,3.29s1.32,3.02,1.32,4.85-.4,3.37-1.19,4.61c-.8,1.24-1.85,2.2-3.16,2.85-1.31.66-2.73,1.05-4.25,1.19l.83-.57c1.62.03,3.08.47,4.38,1.3s2.32,1.91,3.08,3.24c.76,1.33,1.14,2.81,1.14,4.43,0,1.9-.47,3.6-1.4,5.11s-2.28,2.68-4.04,3.53c-1.76.85-3.92,1.27-6.48,1.27H0ZM6.22,15.35h7.15c1.97,0,3.47-.46,4.51-1.37,1.04-.92,1.56-2.19,1.56-3.81s-.52-2.84-1.56-3.76c-1.04-.92-2.58-1.37-4.61-1.37h-7.05v10.32ZM6.22,31.21h7.62c2.04,0,3.63-.48,4.77-1.45,1.14-.97,1.71-2.32,1.71-4.04s-.59-3.1-1.76-4.12c-1.18-1.02-2.78-1.53-4.82-1.53h-7.52v11.15Z"/>
    <path class="cls-1" d="M32.46,36.29V0h6.22v36.29h-6.22Z"/>
    <path class="cls-1" d="M45.83,36.29V0h6.22v31.42h16.23v4.87h-22.45Z"/>
    <path class="cls-1" d="M74.19,36.29V0h6.22v36.29h-6.22Z"/>
    <path class="cls-1" d="M87.57,36.29V0h6.22v14.98L107.53,0h7.67l-13.38,14.41,13.74,21.88h-7.57l-10.63-17.11-3.58,3.89v13.22h-6.22Z"/>
  </g>
  <g>
    <path class="cls-1" d="M239.53,36.29c-3.51,0-6.53-.76-9.07-2.28-2.54-1.52-4.49-3.64-5.86-6.37-1.37-2.72-2.06-5.87-2.06-9.45s.68-6.77,2.06-9.5c1.37-2.72,3.32-4.85,5.86-6.39,2.54-1.54,5.56-2.31,9.07-2.31,4.18,0,7.59,1.03,10.25,3.08,2.66,2.06,4.34,4.95,5.04,8.7h-6.62c-.47-1.97-1.43-3.53-2.88-4.66-1.45-1.14-3.4-1.7-5.84-1.7-2.24,0-4.16.51-5.76,1.53-1.6,1.02-2.84,2.49-3.71,4.41-.87,1.92-1.3,4.2-1.3,6.84s.43,4.9,1.3,6.79c.87,1.89,2.11,3.34,3.71,4.36,1.6,1.02,3.53,1.53,5.76,1.53,2.44,0,4.39-.53,5.84-1.58,1.45-1.05,2.4-2.51,2.83-4.39h6.67c-.67,3.54-2.34,6.32-5.01,8.35-2.67,2.02-6.1,3.03-10.28,3.03Z"/>
    <path class="cls-1" d="M276.88,36.29c-3.48,0-6.52-.76-9.15-2.28-2.62-1.52-4.68-3.64-6.17-6.37-1.49-2.72-2.23-5.89-2.23-9.5s.74-6.72,2.23-9.45c1.49-2.72,3.54-4.85,6.17-6.39,2.62-1.54,5.67-2.31,9.15-2.31s6.53.77,9.17,2.31c2.64,1.54,4.69,3.67,6.14,6.39,1.45,2.72,2.18,5.87,2.18,9.45s-.73,6.78-2.18,9.5c-1.45,2.72-3.5,4.85-6.14,6.37-2.64,1.52-5.7,2.28-9.17,2.28ZM276.88,30.88c2.31,0,4.31-.51,6.02-1.53,1.7-1.02,3.02-2.48,3.96-4.39.94-1.9,1.4-4.18,1.4-6.82s-.47-4.91-1.4-6.82c-.94-1.9-2.26-3.37-3.96-4.39-1.7-1.02-3.71-1.53-6.02-1.53s-4.31.51-6.02,1.53c-1.7,1.02-3.02,2.48-3.96,4.39-.94,1.9-1.4,4.18-1.4,6.82s.47,4.91,1.4,6.82c.94,1.9,2.26,3.37,3.96,4.39,1.7,1.02,3.71,1.53,6.02,1.53Z"/>
    <path class="cls-1" d="M300.14,35.69V.6h6.02l16.89,25.36V.6h6.02v35.09h-6.02l-16.89-25.31v25.31h-6.02Z"/>
    <path class="cls-1" d="M351.77,36.29c-3.51,0-6.53-.76-9.07-2.28-2.54-1.52-4.5-3.64-5.86-6.37-1.37-2.72-2.06-5.87-2.06-9.45s.68-6.77,2.06-9.5c1.37-2.72,3.32-4.85,5.86-6.39,2.54-1.54,5.56-2.31,9.07-2.31,4.18,0,7.59,1.03,10.25,3.08,2.66,2.06,4.34,4.95,5.04,8.7h-6.62c-.47-1.97-1.43-3.53-2.88-4.66-1.45-1.14-3.4-1.7-5.84-1.7-2.24,0-4.16.51-5.76,1.53-1.6,1.02-2.84,2.49-3.71,4.41-.87,1.92-1.3,4.2-1.3,6.84s.43,4.9,1.3,6.79c.87,1.89,2.11,3.34,3.71,4.36,1.6,1.02,3.53,1.53,5.76,1.53,2.44,0,4.39-.53,5.84-1.58,1.45-1.05,2.4-2.51,2.83-4.39h6.67c-.67,3.54-2.34,6.32-5.01,8.35-2.67,2.02-6.1,3.03-10.28,3.03Z"/>
    <path class="cls-1" d="M372.77,35.69V.6h22.66v4.86h-16.64v10.08h15.14v4.76h-15.14v10.53h16.64v4.86h-22.66Z"/>
    <path class="cls-1" d="M401.64,35.69V.6h12.73c2.81,0,5.12.47,6.94,1.4,1.82.94,3.17,2.21,4.06,3.81.89,1.6,1.33,3.43,1.33,5.46s-.43,3.71-1.28,5.31c-.85,1.6-2.2,2.89-4.04,3.86-1.84.97-4.18,1.45-7.02,1.45h-6.72v13.78h-6.02ZM407.66,16.99h6.37c2.34,0,4.02-.52,5.04-1.55,1.02-1.04,1.53-2.42,1.53-4.16s-.51-3.22-1.53-4.24c-1.02-1.02-2.7-1.53-5.04-1.53h-6.37v11.48Z"/>
    <path class="cls-1" d="M440.04,35.69V5.46h-10.33V.6h26.62v4.86h-10.33v30.23h-5.97Z"/>
  </g>
  <path class="cls-1" d="M466.54,11.25c-1.09,0-2.04-.24-2.88-.72-.83-.48-1.48-1.14-1.94-1.99-.46-.85-.69-1.82-.69-2.92s.23-2.08.69-2.92c.46-.84,1.1-1.5,1.94-1.98.83-.48,1.79-.72,2.88-.72s2.05.24,2.88.72c.82.48,1.47,1.14,1.94,1.98.47.84.7,1.82.7,2.92s-.23,2.07-.7,2.92c-.47.85-1.11,1.51-1.94,1.99-.82.48-1.78.72-2.88.72ZM466.54,10.54c.98,0,1.83-.21,2.54-.62.71-.42,1.26-.99,1.64-1.73.38-.74.58-1.59.58-2.56s-.19-1.86-.58-2.6c-.38-.74-.93-1.32-1.64-1.72-.71-.41-1.56-.61-2.54-.61s-1.81.2-2.52.61c-.71.41-1.26.98-1.65,1.71-.39.74-.58,1.61-.58,2.61s.19,1.82.58,2.56c.39.74.94,1.31,1.65,1.73.71.42,1.55.62,2.52.62ZM466.54,9.23c-.64,0-1.23-.15-1.75-.43-.52-.29-.94-.7-1.25-1.24-.31-.54-.47-1.19-.47-1.94s.15-1.39.47-1.94c.31-.54.73-.96,1.25-1.25.52-.29,1.1-.43,1.75-.43.81,0,1.51.22,2.1.65.59.43.98,1.05,1.17,1.85h-1.68c-.12-.38-.32-.67-.61-.88-.29-.21-.63-.31-1.02-.31-.35,0-.66.09-.93.26s-.49.43-.66.77c-.16.34-.25.77-.25,1.29s.08.92.25,1.26.38.61.66.78.58.26.93.26c.41,0,.76-.11,1.04-.32.28-.21.48-.5.59-.85h1.68c-.19.76-.58,1.36-1.17,1.8-.59.44-1.29.67-2.1.67Z"/>
  <rect class="cls-1" x="123.57" width="91.32" height="36.29"/>
</svg>